<?xml version="1.0" standalone="no"?>
<!DOCTYPE svg PUBLIC "-//W3C//DTD SVG 20010904//EN"
 "http://www.w3.org/TR/2001/REC-SVG-20010904/DTD/svg10.dtd">
<svg version="1.0" xmlns="http://www.w3.org/2000/svg"
 width="260.000000pt" height="260.000000pt" viewBox="0 0 260.000000 260.000000"
 preserveAspectRatio="xMidYMid meet">
<metadata>
Created by potrace 1.11, written by Peter Selinger 2001-2013
</metadata>
<g transform="translate(0.000000,260.000000) scale(0.100000,-0.100000)"
fill="#000000" stroke="none">
<path d="M60 1335 l0 -425 230 0 230 0 0 180 0 180 395 0 395 0 0 -180 0 -180
230 0 230 0 0 425 0 425 -227 -2 -228 -3 -3 -162 -2 -163 -395 0 -395 0 -2
163 -3 162 -227 3 -228 2 0 -425z"/>
<path d="M2100 1335 l0 -425 225 0 225 0 0 425 0 425 -225 0 -225 0 0 -425z"/>
</g>
</svg>
